<?xml version="1.0" encoding="UTF-8" standalone="no"?>
<!DOCTYPE svg PUBLIC "-//W3C//DTD SVG 1.0//EN" "http://www.w3.org/TR/2001/REC-SVG-20010904/DTD/svg10.dtd">
<svg xmlns="http://www.w3.org/2000/svg" width="100%" height="100%">
<defs>
<font id="brandon_reg" horiz-adv-x="383"><font-face font-family="Brandon Grotesque Regular" units-per-em="1000" panose-1="2 11 5 3 2 2 3 6 2 2" ascent="1050" descent="-380" alphabetic="0"/>
<missing-glyph horiz-adv-x="599" d="M50 30V670Q50 700 80 700H519Q549 700 549 670V30Q549 0 519 0H80Q50 0 50 30ZM262 314Q262 302 276 302H312Q327 302 327 315V341Q327 357 343 373T379 401T415 438T432 491Q432 539 397 570T307 602Q283 602 261 596T224 581T198 563T182 548L177 541Q169 529 177 523L199 501Q208 495 216 501Q217 502 223 508T233 517T244 525T260 534T278 539T300 542Q329 542 345 527T361 490Q361 469 346 451T312 421T278 389T262 343V314ZM245 176T245 156T259 122T293 108Q313 108 327 122T342 156T328 190T293 204Q274 204 260 190Z"/>
<glyph unicode=" " glyph-name="space" horiz-adv-x="222"/>
<glyph unicode="!" glyph-name="exclam" horiz-adv-x="298" d="M143 272Q136 272 131 277T124 288L105 567V681Q105 688 110 694T124 700H174Q182 700 187 694T193 681V569L174 288Q173 282 168 277T155 272H143ZM92 47Q92 71 109 87T149 104Q173 104 189 88T206 47Q206 24 190 7T149 -10Q126 -10 109 7T92 47Z"/>
<glyph unicode="&quot;" glyph-name="quotedbl" horiz-adv-x="307" d="M219 501Q212 501 206 506T200 520V681Q200 688 206 694T219 700H253Q263 700 268 693T271 675L243 516Q239 501 225 501H219ZM68 501Q60 501 55 506T49 520V681Q49 688 54 694T68 700H102Q112 700 117 693T120 675L92 516Q88 501 74 501H68Z"/>
<glyph unicode="#" glyph-name="numbersign" horiz-adv-x="542" d="M106 22L131 195H61Q53 195 48 200T42 214V221Q42 240 61 240H138L162 411H90Q82 411 77 416T71 430V437Q71 444 76 450T90 456H168L200 684Q201 690 206 695T218 700H225Q233 700 238 694T243 678L213 456H364L395 684Q396 690 401 695T414 700H420Q429 700 434 694T439 678L409 456H479Q487 456 492 451T498 437V430Q498 411 481 411H403L379 240H450Q458 240 463 235T469 221V214Q469 206 464 201T452 195H372L346 16Q344 0 327 0H321Q312 0 307 6T302 22L328 195H175L150 16Q148 0 131 0H125Q115 0 110 6T106 22ZM182 240H335L358 411H207L182 240Z"/>
<glyph unicode="$" glyph-name="dollar" horiz-adv-x="524" d="M58 71Q40 86 52 105Q55 108 61 116T70 128T79 136T90 139T102 133Q111 124 124 113T174 83T244 59V319Q157 354 111 393T56 496Q54 507 54 532Q54 567 72 604T135 672T244 709V741Q244 749 249 754T263 760H270Q278 760 283 755T288 741V709Q327 706 364 694T420 670L438 659Q445 656 448 648T444 625Q425 596 419 593Q411 589 397 597L389 602Q381 606 371 611T348 623T319 634T288 641L287 382Q337 361 370 342T431 298T472 242T485 170Q485 97 427 47T287 -9V-113Q287 -131 265 -131Q244 -131 244 -113V-9Q197 -5 152 14T89 46T58 71ZM244 400V642Q186 636 157 603T128 533Q128 489 157 458T244 400ZM287 58Q337 62 371 94T405 167T377 238T287 299V58Z"/>
<glyph unicode="%" glyph-name="percent" horiz-adv-x="675" d="M226 441T170 441T75 480T35 576T74 671T170 711T265 672T305 576T266 481ZM128 27L471 690Q477 700 488 700H504Q515 700 520 692T521 673L176 10Q171 0 159 0H145Q134 0 129 8T128 27ZM170 498Q201 498 223 520T246 576Q246 607 224 629T170 652Q137 652 115 630T92 576Q92 543 114 521T170 498ZM351 68T351 124T390 219T486 259T581 220T621 124T582 29T486 -11T391 28ZM408 124Q408 91 430 69T486 46Q517 46 539 68T562 124Q562 155 540 177T486 200Q453 200 431 178T408 124Z"/>
<glyph unicode="&amp;" glyph-name="ampersand" horiz-adv-x="666" d="M82 174Q82 292 221 374V376L197 402Q125 478 127 548Q127 612 173 661T304 710Q382 710 427 666T473 556Q473 456 325 364L490 199Q530 281 530 377Q530 392 535 396T553 400H577Q596 400 596 379Q596 378 596 377Q596 257 537 152L633 56Q644 44 645 37T632 10L620 -1Q599 -20 578 2L493 90Q404 -10 275 -10Q184 -10 133 43T82 174ZM280 410Q306 426 319 435T356 464T391 506T403 554Q403 593 375 622T298 651T222 621T194 546Q193 516 209 490T258 432L280 410ZM152 173Q152 121 188 87T278 52Q379 52 449 137L264 331Q152 263 152 173Z"/>
<glyph unicode="'" glyph-name="quotesingle" horiz-adv-x="156" d="M68 501Q60 501 55 506T49 520V681Q49 688 54 694T68 700H102Q112 700 117 693T120 675L92 516Q88 501 74 501H68Z"/>
<glyph unicode="(" glyph-name="parenleft" horiz-adv-x="344" d="M294 -78Q248 -76 209 -55T134 9T79 131T58 315T78 499T134 620T208 685T294 708Q311 710 312 698L314 671Q317 656 304 654Q212 636 170 551T128 315T170 79T304 -24Q317 -26 314 -41L312 -68Q311 -80 294 -78Z"/>
<glyph unicode=")" glyph-name="parenright" horiz-adv-x="344" d="M40 -24Q132 -6 174 79T216 315T174 551T40 654Q27 656 30 671L32 698Q33 710 50 708Q96 706 135 685T210 621T265 499T286 315T266 131T210 10T136 -55T50 -78Q33 -80 32 -68L30 -41Q27 -26 40 -24Z"/>
<glyph unicode="*" glyph-name="asterisk" horiz-adv-x="328" d="M157 415Q150 415 144 420T138 434L140 516L73 468Q67 464 59 465T47 474L40 484Q30 500 45 511L120 558L43 605Q29 616 38 631L46 642Q50 648 57 650T71 648L140 599L138 682Q138 689 143 694T157 700H170Q178 700 183 695T189 682L187 600L254 650Q269 658 280 644L287 633Q296 616 282 607L205 558L283 509Q299 499 289 483L282 472Q272 457 255 466L187 515L189 434Q189 426 184 421T170 415H157Z"/>
<glyph unicode="+" glyph-name="plus" horiz-adv-x="501" d="M217 157V314H60Q52 314 47 320T41 333V361Q41 368 46 374T60 380H217V538Q217 545 222 550T236 556H264Q272 556 277 551T283 538V380H441Q448 380 453 375T459 361V333Q459 325 454 320T441 314H283V157Q283 150 278 145T264 139H236Q228 139 223 144T217 157Z"/>
<glyph unicode="," glyph-name="comma" horiz-adv-x="233" d="M55 47Q55 71 72 87T112 104Q178 104 178 14Q178 -42 152 -92T94 -171Q80 -183 70 -173L56 -159Q46 -149 62 -135Q124 -79 124 -9Q120 -10 112 -10Q89 -10 72 7T55 47Z"/>
<glyph unicode="-" glyph-name="hyphen" horiz-adv-x="413" d="M102 220Q94 220 89 225T83 238V257Q83 276 102 276H311Q330 276 330 257V238Q330 230 325 225T311 220H102Z"/>
<glyph unicode="." glyph-name="period" horiz-adv-x="226" d="M56 47Q56 71 73 87T113 104Q137 104 153 88T170 47Q170 24 154 7T113 -10Q90 -10 73 7T56 47Z"/>
<glyph unicode="/" glyph-name="slash" horiz-adv-x="320" d="M40 25L236 687Q240 700 254 700H276Q287 700 292 693T294 675L99 13Q95 0 81 0H58Q48 0 43 7T40 25Z"/>
<glyph unicode="0" glyph-name="zero" horiz-adv-x="632" d="M432 -10T316 -10T137 82T73 340T136 597T316 690T495 598T559 340T496 83ZM233 55T316 55T443 129T488 340Q488 476 443 550T316 625T189 551T144 340Q144 203 188 129Z"/>
<glyph unicode="1" glyph-name="one" horiz-adv-x="326" d="M149 19V556L77 500Q64 490 54 501L35 522Q26 533 37 544L177 680H204Q211 680 216 675T222 661V19Q222 11 217 6T204 0H168Q160 0 155 5T149 19Z"/>
<glyph unicode="2" glyph-name="two" horiz-adv-x="519" d="M42 19V49L287 314Q388 424 388 495Q388 545 354 583T248 622Q176 622 106 547Q92 534 79 547L59 566Q47 580 58 592Q61 596 66 602T90 626T129 656T182 679T248 690Q350 690 407 634T464 497Q464 437 433 388T339 270L147 65H441Q448 65 454 60T460 46V19Q460 12 454 6T441 0H61Q53 0 48 5T42 19Z"/>
<glyph unicode="3" glyph-name="three" horiz-adv-x="532" d="M47 79Q35 93 48 103L75 126Q90 137 102 121Q111 110 125 98T176 69T251 52Q311 52 353 86T395 177Q395 233 351 270T218 308H162Q143 308 143 330V354Q143 376 164 376H219Q296 376 337 410T378 497Q378 555 340 589T247 624Q173 624 116 559Q104 545 90 557L66 576Q52 588 66 602Q69 606 74 611T98 632T136 659T186 680T247 690Q339 690 396 640T453 507Q453 454 421 411T350 349V346Q395 327 432 285T470 184Q470 100 410 45T248 -10Q125 -10 47 79Z"/>
<glyph unicode="4" glyph-name="four" horiz-adv-x="586" d="M35 154Q27 154 22 159T16 173V210L395 685Q401 691 410 691H430Q438 691 443 686T449 672L450 215H531Q539 215 544 210T550 197V175Q550 167 545 162T531 156H450V19Q450 12 444 6T431 0H397Q390 0 384 6T378 19V154H35ZM100 216H382V564L100 216Z"/>
<glyph unicode="5" glyph-name="five" horiz-adv-x="533" d="M67 73Q50 92 65 107Q69 111 76 118T88 129Q103 142 113 128Q122 115 135 102T184 71T261 54Q330 54 374 104T418 218Q418 280 378 321T261 362H109Q95 362 87 373T78 397V661Q78 669 83 674T97 680H399Q407 680 412 675T418 661V632Q418 624 413 619T399 613H145V429H261Q373 429 432 374T492 219Q492 124 426 57T260 -10Q136 -10 67 73Z"/>
<glyph unicode="6" glyph-name="six" horiz-adv-x="543" d="M53 275Q53 351 78 418T139 529T223 611T308 668T382 703Q397 709 404 693L415 669Q424 648 397 640Q382 635 357 622T297 585T233 533T176 467T140 391Q147 396 160 403T214 423T292 436Q380 436 443 376T507 219Q507 125 442 58T286 -10Q170 -10 112 69T53 275ZM286 56Q349 56 392 103T436 215T392 325T285 371Q244 371 205 355T146 322L127 306Q118 268 125 225T149 144T201 81T286 56Z"/>
<glyph unicode="7" glyph-name="seven" horiz-adv-x="474" d="M91 19V30L370 613H43Q36 613 30 618T24 632V661Q24 668 30 674T43 680H445Q452 680 458 674T464 661V654L172 26Q160 0 139 0H110Q102 0 97 6T91 19Z"/>
<glyph unicode="8" glyph-name="eight" horiz-adv-x="573" d="M62 183Q62 241 100 286T183 350V353Q143 371 112 412T80 507Q80 589 138 639T286 690Q377 690 435 640T494 507Q494 454 463 413T391 353V350Q435 331 473 286T512 183Q512 99 451 45T285 -10Q184 -10 123 44T62 183ZM287 385Q353 392 386 423T420 504Q420 560 382 595T283 630Q228 630 191 595T154 504Q154 455 187 423T287 385ZM137 176Q137 120 180 85T285 50Q351 50 394 84T437 176Q437 225 396 264T287 311Q218 304 178 265T137 176Z"/>
<glyph unicode="9" glyph-name="nine" horiz-adv-x="543" d="M128 17Q119 38 146 46Q161 51 186 64T246 101T310 153T367 219T403 295Q396 290 383 283T329 263T251 250Q163 250 100 310T36 467Q36 561 101 628T257 696Q373 696 431 617T490 411Q490 335 465 268T404 157T320 75T235 18T161 -17Q146 -23 139 -7L128 17ZM258 315Q299 315 338 331T397 364L416 380Q425 418 418 461T394 542T342 605T257 630Q194 630 151 583T107 471T151 361T258 315Z"/>
<glyph unicode=":" glyph-name="colon" horiz-adv-x="256" d="M128 296Q105 296 88 313T71 353Q71 377 88 393T128 410Q152 410 168 394T185 353Q185 330 169 313T128 296ZM71 47Q71 71 88 87T128 104Q152 104 168 88T185 47Q185 24 169 7T128 -10Q105 -10 88 7T71 47Z"/>
<glyph unicode=";" glyph-name="semicolon" horiz-adv-x="259" d="M127 296Q104 296 87 313T70 353Q70 377 87 393T127 410Q151 410 167 394T184 353Q184 330 168 313T127 296ZM70 47Q70 71 87 87T127 104Q193 104 193 14Q193 -42 167 -92T109 -171Q95 -183 85 -173L71 -159Q61 -149 77 -135Q139 -79 139 -9Q135 -10 127 -10Q104 -10 87 7T70 47Z"/>
<glyph unicode="&lt;" glyph-name="less" horiz-adv-x="439" d="M35 210Q25 216 25 227V232Q25 243 35 249L375 461Q385 467 394 462T403 445V409Q403 397 392 390L131 230L392 76Q403 69 403 57V21Q403 9 394 4T375 5L35 210Z"/>
<glyph unicode="=" glyph-name="equal" horiz-adv-x="510" d="M105 351Q97 351 92 356T86 370V400Q86 408 91 413T105 419H404Q412 419 417 414T423 400V370Q423 362 418 357T404 351H105ZM105 140Q97 140 92 145T86 159V190Q86 198 91 203T105 209H404Q412 209 417 204T423 190V159Q423 151 418 146T404 140H105Z"/>
<glyph unicode="&gt;" glyph-name="greater" horiz-adv-x="439" d="M36 21V57Q36 70 47 76L308 230L47 390Q36 397 36 409V445Q36 457 45 462T64 461L404 249Q414 243 414 232V227Q414 216 404 210L64 5Q54 -1 45 4T36 21Z"/>
<glyph unicode="?" glyph-name="question" horiz-adv-x="461" d="M201 272Q193 272 188 277T182 291V333Q182 367 197 392T235 434T279 466T316 505T332 560Q332 597 306 622T233 648Q220 648 208 647T185 642T166 635T149 626T135 617T122 607T112 598T102 588L95 580Q82 567 69 579L50 596Q38 606 50 622Q52 626 57 631T78 652T114 679T165 700T233 710Q311 710 359 668T407 557Q407 521 391 492T351 445T305 410T266 375T249 333V292Q249 272 228 272H201ZM156 47Q156 71 173 87T213 104Q237 104 253 88T270 47Q270 24 254 7T213 -10Q190 -10 173 7T156 47Z"/>
<glyph unicode="@" glyph-name="at" horiz-adv-x="981" d="M43 223Q43 438 168 574T503 710Q699 710 812 592T925 288Q925 235 914 185T880 90T815 18T716 -10Q667 -10 639 12T601 68H593Q576 34 543 12T467 -10Q390 -10 341 48T292 201Q292 299 341 354T470 410Q506 410 534 397T574 370L585 357Q593 389 598 394Q604 400 619 400H629Q636 400 642 394T648 381V168Q648 99 666 73T720 46Q780 46 821 111T863 288Q863 449 769 551T501 654Q320 654 213 538T106 223Q106 86 177 -14T370 -167Q381 -172 382 -177T379 -192L368 -219Q362 -233 348 -227Q209 -169 126 -52T43 223ZM356 200Q356 133 390 95T473 56Q519 56 545 83T581 150V292Q577 298 570 307T535 332T474 348Q422 348 389 309T356 200Z"/>
<glyph unicode="A" glyph-name="A" horiz-adv-x="663" d="M23 0Q12 0 7 8T6 26L310 699Q316 710 327 710H337Q348 710 354 699L656 26Q661 16 656 8T639 0H599Q586 0 582 11L508 176H153L80 11Q76 0 63 0H23ZM181 238H481L335 566H327L181 238Z"/>
<glyph unicode="B" glyph-name="B" horiz-adv-x="625" d="M102 19V681Q102 689 107 694T121 700H340Q431 700 488 648T545 516Q545 463 516 421T447 356Q496 336 531 296T567 193Q567 109 506 55T349 0H121Q113 0 108 5T102 19ZM177 386H340Q396 386 428 421T460 511Q460 566 429 598T340 631H177V386ZM175 67H357Q411 67 447 103T483 194Q483 247 441 282T340 317H175V67Z"/>
<glyph unicode="C" glyph-name="C" horiz-adv-x="707" d="M51 199T51 349T156 604T412 710Q545 710 654 617Q668 602 655 589L628 562Q617 548 602 563Q515 638 411 638Q294 638 213 553T132 350Q132 233 213 148T411 63Q452 63 488 74T547 99T602 138Q615 148 626 141L656 114Q662 109 662 101T655 87Q555 -10 412 -10Q262 -10 157 94Z"/>
<glyph unicode="D" glyph-name="D" horiz-adv-x="747" d="M102 19V681Q102 689 107 694T120 700H344Q489 700 592 598T695 351Q695 206 592 103T344 0H120Q113 0 108 5T102 19ZM178 69H328Q451 69 531 148T611 351T531 553T328 632H178V69Z"/>
<glyph unicode="E" glyph-name="E" horiz-adv-x="592" d="M102 19V681Q102 689 107 694T121 700H515Q523 700 528 695T534 681V652Q534 644 529 639T515 633H179V389H466Q474 389 479 384T485 370V341Q485 333 480 328T466 322H179V67H515Q523 67 528 62T534 48V19Q534 11 529 6T515 0H121Q113 0 108 5T102 19Z"/>
<glyph unicode="F" glyph-name="F" horiz-adv-x="569" d="M102 19V681Q102 689 107 694T121 700H515Q523 700 528 695T534 681V652Q534 644 529 639T515 633H179V359H466Q474 359 479 354T485 340V311Q485 304 480 298T466 292H179V19Q179 12 174 6T160 0H121Q113 0 108 5T102 19Z"/>
<glyph unicode="G" glyph-name="G" horiz-adv-x="732" d="M51 199T51 349T156 604T412 710Q545 710 654 617Q668 602 655 589L627 561Q616 549 601 562Q561 597 511 618T411 640Q294 640 214 556T133 353Q133 236 213 150T411 64Q460 64 505 74T570 96L591 106V246H476Q468 246 463 251T457 264V301Q457 320 476 320H649Q656 320 661 315T667 301V72Q667 62 659 56Q648 49 627 38T541 9T412 -10Q262 -10 157 94Z"/>
<glyph unicode="H" glyph-name="H" horiz-adv-x="764" d="M102 19V681Q102 688 108 694T121 700H160Q168 700 173 695T179 681V389H585V681Q585 689 590 694T604 700H643Q650 700 656 694T662 681V19Q662 12 656 6T643 0H604Q596 0 591 5T585 19V322H179V19Q179 11 174 6T160 0H121Q114 0 108 6T102 19Z"/>
<glyph unicode="I" glyph-name="I" horiz-adv-x="282" d="M102 19V681Q102 688 108 694T121 700H161Q168 700 174 694T180 681V19Q180 12 174 6T161 0H121Q114 0 108 6T102 19Z"/>
<glyph unicode="J" glyph-name="J" horiz-adv-x="405" d="M-20 64Q-28 77 -18 89L3 113Q20 129 37 110Q84 57 134 57T220 95T256 207V681Q256 689 261 694T275 700H314Q322 700 327 695T333 681V209Q333 107 278 49T132 -10Q40 -10 -20 64Z"/>
<glyph unicode="K" glyph-name="K" horiz-adv-x="618" d="M102 24V676Q102 686 109 693T126 700H155Q165 700 172 693T179 676V393L491 690Q499 700 510 700H559Q573 700 577 688T571 665L255 370L586 31Q593 26 589 13T569 0H518Q505 0 500 7L179 342V24Q179 14 172 7T155 0H126Q116 0 109 7T102 24Z"/>
<glyph unicode="L" glyph-name="L" horiz-adv-x="491" d="M102 19V681Q102 689 107 694T121 700H160Q168 700 173 694T179 681V67H467Q475 67 480 62T486 48V19Q486 11 481 6T467 0H121Q113 0 108 5T102 19Z"/>
<glyph unicode="M" glyph-name="M" horiz-adv-x="862" d="M52 24L181 696Q184 710 199 710H215Q228 710 232 699L430 148H435L630 699Q634 710 647 710H663Q678 710 681 696L810 24Q815 0 792 0H752Q738 0 734 14L645 529H641L457 1Q453 -10 440 -10H422Q409 -10 405 1L219 529H215L128 14Q127 9 122 5T110 0H70Q47 0 52 24Z"/>
<glyph unicode="N" glyph-name="N" horiz-adv-x="774" d="M102 19V692Q102 699 107 704T121 710H146L597 148H599V681Q599 689 604 694T618 700H653Q660 700 666 694T672 681V8Q672 1 667 -4T653 -10H635L176 563H175V19Q175 11 170 6T156 0H121Q114 0 108 6T102 19Z"/>
<glyph unicode="O" glyph-name="O" horiz-adv-x="821" d="M51 199T51 349T155 604T410 710T665 605T770 349T665 95T410 -10T156 94ZM121 468T121 349T206 145T410 60T614 145T700 349T615 554T410 640T206 554Z"/>
<glyph unicode="P" glyph-name="P" horiz-adv-x="596" d="M102 19V681Q102 689 107 694T121 700H342Q434 700 500 635T566 479Q566 386 501 320T343 254H178V19Q178 12 172 6T159 0H121Q113 0 108 5T102 19ZM178 328H337Q399 328 444 372T489 481Q489 541 444 582T337 624H178V328Z"/>
<glyph unicode="Q" glyph-name="Q" horiz-adv-x="822" d="M51 199T51 349T155 604T410 710T665 605T770 349Q770 240 712 152T557 20L674 -168Q681 -178 676 -188T658 -198H608Q598 -198 592 -188L483 -4Q450 -10 410 -10Q260 -10 156 94ZM121 468T121 349T206 145T410 60T614 145T700 349T615 554T410 640T206 554Z"/>
<glyph unicode="R" glyph-name="R" horiz-adv-x="661" d="M102 19V681Q102 689 107 694T121 700H380Q470 700 534 638T598 487Q598 419 558 365T450 283L587 29Q593 19 588 10T570 0H519Q508 0 503 9L370 274H179V19Q179 12 174 6T160 0H121Q113 0 108 5T102 19ZM181 340H375Q433 340 476 382T519 486Q519 543 476 585T375 627H181V340Z"/>
<glyph unicode="S" glyph-name="S" horiz-adv-x="533" d="M63 71Q45 86 57 105Q60 108 65 114T72 124Q90 148 107 133Q196 57 276 57Q335 57 372 89T410 167Q410 216 369 251T235 325Q143 365 101 408T59 532Q59 560 70 589T105 646T172 692T272 710Q316 710 358 697T422 672L443 659Q450 656 453 648T449 625Q447 622 443 616T437 606Q423 585 402 597Q322 643 271 643Q200 643 167 608T133 533Q133 485 166 453T268 392Q383 345 436 298T490 170Q490 93 427 42T274 -10Q221 -10 170 9T98 43T63 71Z"/>
<glyph unicode="T" glyph-name="T" horiz-adv-x="478" d="M201 19V633H27Q19 633 14 638T8 652V681Q8 689 13 694T27 700H451Q459 700 464 695T470 681V652Q470 644 465 639T451 633H277V19Q277 12 272 6T258 0H220Q212 0 207 6T201 19Z"/>
<glyph unicode="U" glyph-name="U" horiz-adv-x="716" d="M93 258V681Q93 688 98 694T112 700H150Q158 700 163 695T169 681V264Q169 176 220 119T357 61Q444 61 495 118T547 262V681Q547 689 552 694T566 700H604Q612 700 617 694T623 681V258Q623 143 549 67T357 -10Q241 -10 167 66T93 258Z"/>
<glyph unicode="V" glyph-name="V" horiz-adv-x="664" d="M309 1L7 674Q2 684 7 692T24 700H64Q77 700 81 689L330 129H334L583 689Q587 700 600 700H640Q651 700 656 692T657 674L353 1Q348 -10 336 -10H326Q314 -10 309 1Z"/>
<glyph unicode="W" glyph-name="W" horiz-adv-x="902" d="M226 4L37 676Q34 686 39 693T55 700H97Q111 700 115 686L254 168H258L425 699Q429 710 442 710H460Q473 710 477 699L647 168H651L787 686Q791 700 805 700H847Q858 700 863 693T865 676L676 4Q672 -10 658 -10H642Q630 -10 625 1L452 542H447L277 1Q272 -10 260 -10H244Q230 -10 226 4Z"/>
<glyph unicode="X" glyph-name="X" horiz-adv-x="583" d="M40 28L243 359L48 672Q42 682 47 691T65 700H119Q131 700 136 691L290 426H291L447 691Q452 700 464 700H518Q531 700 536 691T535 672L340 359L542 28Q548 18 543 9T525 0H479Q466 0 462 9L291 292H290L121 9Q116 0 104 0H58Q45 0 40 9T40 28Z"/>
<glyph unicode="Y" glyph-name="Y" horiz-adv-x="565" d="M243 19V337L2 671Q-4 681 1 690T18 700H65Q74 700 81 691L283 412L485 691Q492 700 501 700H548Q560 700 565 691T564 671L320 338V19Q320 12 314 6T301 0H262Q254 0 249 5T243 19Z"/>
<glyph unicode="Z" glyph-name="Z" horiz-adv-x="534" d="M30 19V37L393 627V630H78Q70 630 65 636T59 649V681Q59 688 64 694T78 700H483Q490 700 496 694T502 681V668L133 71V70H463Q471 70 476 65T482 51V19Q482 11 477 6T463 0H49Q42 0 36 6T30 19Z"/>
<glyph unicode="[" glyph-name="bracketleft" horiz-adv-x="327" d="M146 -237H283Q291 -237 296 -242T302 -255V-281Q302 -288 296 -294T283 -300H97Q90 -300 84 -294T78 -281V681Q78 688 84 694T97 700H283Q290 700 296 694T302 681V656Q302 648 297 643T283 637H146V-237Z"/>
<glyph unicode="\" glyph-name="backslash" horiz-adv-x="330" d="M221 13L26 675Q23 685 28 692T44 700H76Q90 700 94 687L290 25Q293 15 288 8T272 0H239Q225 0 221 13Z"/>
<glyph unicode="]" glyph-name="bracketright" horiz-adv-x="327" d="M44 -237H181V637H44Q36 637 31 642T25 656V681Q25 688 30 694T44 700H230Q238 700 243 694T249 681V-281Q249 -288 244 -294T230 -300H44Q36 -300 31 -294T25 -281V-255Q25 -248 30 -243T44 -237Z"/>
<glyph unicode="^" glyph-name="asciicircum" horiz-adv-x="524" d="M60 398Q48 398 43 407T44 426L245 704Q251 714 262 714H267Q278 714 284 704L480 426Q486 416 481 407T464 398H431Q419 398 412 409L263 620L112 409Q104 398 93 398H60Z"/>
<glyph unicode="_" glyph-name="underscore" horiz-adv-x="387" d="M25 -29Q25 -10 44 -10H343Q362 -10 362 -29V-45Q362 -53 357 -58T343 -63H44Q36 -63 31 -58T25 -45V-29Z"/>
<glyph unicode="`" glyph-name="grave" horiz-adv-x="302" d="M237 559L76 626Q62 631 70 647L88 683Q91 689 100 689T114 686L264 602Q276 596 270 583L260 561Q255 551 237 559Z"/>
<glyph unicode="a" glyph-name="a" horiz-adv-x="420" d="M42 62T42 121T84 217T202 254Q221 254 242 251T276 244L287 241Q288 301 276 325T222 349Q159 349 102 327Q88 321 83 337L75 362Q70 377 86 384Q92 387 107 392T157 403T225 410Q299 410 325 372T352 241V19Q352 12 346 6T333 0H314Q302 0 297 15L289 42Q237 -10 165 -10Q112 -10 77 26ZM106 121Q106 90 125 70T176 50Q211 50 241 67T286 106V185Q259 201 202 201Q159 201 133 180T106 121Z"/>
<glyph unicode="b" glyph-name="b" horiz-adv-x="482" d="M72 19V681Q72 688 78 694T91 700H122Q130 700 135 694T141 681V384Q182 410 248 410Q336 410 388 351T440 201Q440 114 387 52T258 -10Q225 -10 194 3T149 30L135 43L129 16Q125 0 112 0H91Q84 0 78 6T72 19ZM142 119Q146 112 154 101T190 72T251 53Q304 53 337 96T370 200Q370 263 336 303T239 343Q215 343 191 337T154 325L142 319V119Z"/>
<glyph unicode="c" glyph-name="c" horiz-adv-x="441" d="M41 199Q41 286 102 348T247 410Q335 410 390 340Q402 324 386 312L367 296Q354 284 342 296Q339 299 338 300Q301 342 246 342Q190 342 152 301T113 200T151 98T245 56Q257 56 268 57T288 63T304 69T319 78T330 87T341 98T351 108Q365 122 381 110L392 102Q409 90 399 74Q375 36 335 13T246 -10Q162 -10 102 50T41 199Z"/>
<glyph unicode="d" glyph-name="d" horiz-adv-x="482" d="M42 201Q42 291 94 350T234 410Q263 410 290 404T329 390L341 384V681Q341 688 346 694T360 700H391Q398 700 404 694T410 681V19Q410 12 404 6T391 0H370Q357 0 353 16L347 43Q345 41 342 38T326 25T300 8T266 -4T224 -10Q148 -10 95 52T42 201ZM112 200Q112 139 145 96T231 53Q251 53 269 60T300 76T322 95T336 112L340 119V319Q298 343 243 343Q180 343 146 303T112 200Z"/>
<glyph unicode="e" glyph-name="e" horiz-adv-x="457" d="M42 200Q42 288 96 349T238 410Q317 410 368 358T419 227Q419 214 417 200Q415 183 399 183H111Q114 132 153 93T245 53Q295 53 344 83Q357 90 360 91T372 85L389 62Q395 54 395 49T385 36Q327 -10 238 -10Q150 -10 96 50T42 200ZM112 239H350Q348 283 316 316T238 349Q188 349 153 318T112 239Z"/>
<glyph unicode="f" glyph-name="f" horiz-adv-x="320" d="M103 19V340H42Q34 340 29 345T23 359V381Q23 400 42 400H103V540Q103 623 145 666T256 710Q323 710 366 669Q378 659 370 646L354 620Q345 605 328 619Q290 648 255 648Q218 648 195 622T172 540V400H288Q307 400 307 381V359Q307 351 302 346T288 340H172V19Q172 12 166 6T153 0H122Q114 0 109 6T103 19Z"/>
<glyph unicode="g" glyph-name="g" horiz-adv-x="459" d="M31 19Q31 53 47 81T81 122L98 134Q66 175 66 234Q66 307 112 358T235 410H404Q423 410 423 391V374Q423 359 412 357L358 346Q363 342 370 335T390 298T403 234Q403 163 357 114T235 64Q207 64 183 70T150 82L140 89Q135 87 128 83T108 63T96 29Q96 9 110 -5T151 -20H295Q361 -20 403 -52T445 -148Q445 -212 386 -261T238 -310Q144 -310 95 -269T46 -172Q46 -114 104 -79V-76Q77 -69 54 -46T31 19ZM236 124Q281 124 308 155T336 236T309 317T236 348Q190 348 161 317T131 236T160 156T236 124ZM117 -162Q117 -198 151 -221T237 -245Q289 -245 330 -219T371 -150Q371 -139 368 -127T346 -100T295 -85H184Q176 -87 165 -91T136 -116T117 -162Z"/>
<glyph unicode="h" glyph-name="h" horiz-adv-x="496" d="M72 19V681Q72 688 78 694T91 700H122Q130 700 135 694T141 681V357Q147 363 158 372T204 395T275 410Q350 410 390 364T430 230V19Q430 12 424 6T411 0H379Q372 0 366 6T360 19V230Q360 286 337 314T270 343Q236 343 204 329T156 301L141 287V19Q141 12 136 6T122 0H91Q84 0 78 6T72 19Z"/>
<glyph unicode="i" glyph-name="i" horiz-adv-x="211" d="M124 585T104 585T71 598T57 632T70 666T104 680T138 666T152 632T138 599ZM71 19V381Q71 388 76 394T90 400H121Q128 400 134 394T140 381V19Q140 12 134 6T121 0H90Q82 0 77 6T71 19Z"/>
<glyph unicode="j" glyph-name="j" horiz-adv-x="213" d="M126 585T106 585T73 598T59 632T72 666T106 680T140 666T154 632T140 599ZM72 -140V381Q72 389 77 394T91 400H122Q130 400 135 395T141 381V-140Q141 -223 99 -266T-12 -310Q-79 -310 -122 -269Q-134 -259 -126 -246L-110 -220Q-101 -205 -84 -219Q-46 -248 -11 -248Q26 -248 49 -222T72 -140Z"/>
<glyph unicode="k" glyph-name="k" horiz-adv-x="448" d="M72 19V681Q72 688 78 694T91 700H122Q130 700 135 694T141 681V248L311 388Q325 400 335 400H389Q401 400 402 390T398 375L208 223L429 25Q436 20 434 10T419 0H364Q355 0 344 8L141 201V19Q141 12 136 6T122 0H91Q84 0 78 6T72 19Z"/>
<glyph unicode="l" glyph-name="l" horiz-adv-x="213" d="M72 19V681Q72 688 78 694T91 700H122Q130 700 135 694T141 681V19Q141 12 136 6T122 0H91Q84 0 78 6T72 19Z"/>
<glyph unicode="m" glyph-name="m" horiz-adv-x="762" d="M71 19V381Q71 388 76 394T90 400H109Q122 400 125 388L134 357Q136 359 139 362T155 375T182 392T218 404T264 410Q352 410 392 345Q473 410 541 410Q696 410 696 230V19Q696 12 690 6T677 0H645Q638 0 632 6T626 19V230Q626 343 536 343Q474 343 414 287Q419 259 419 230V19Q419 12 414 6T400 0H368Q360 0 355 6T349 19V230Q349 343 254 343Q222 343 194 329T152 300L140 286V19Q140 12 134 6T121 0H90Q82 0 77 6T71 19Z"/>
<glyph unicode="n" glyph-name="n" horiz-adv-x="495" d="M71 19V381Q71 388 76 394T90 400H109Q122 400 125 388L134 357Q140 363 152 372T200 395T274 410Q429 410 429 230V19Q429 12 424 6T410 0H378Q370 0 365 6T359 19V230Q359 286 336 314T269 343Q236 343 204 329T156 300L140 286V19Q140 12 134 6T121 0H90Q82 0 77 6T71 19Z"/>
<glyph unicode="o" glyph-name="o" horiz-adv-x="482" d="M42 201Q42 286 100 348T241 410T382 348T440 201Q440 114 382 52T241 -10T100 52T42 201ZM111 201Q111 140 148 98T241 55T333 97T371 201Q371 260 334 302T241 344T149 302T111 201Z"/>
<glyph unicode="p" glyph-name="p" horiz-adv-x="482" d="M141 23V-281Q141 -288 136 -294T122 -300H91Q84 -300 78 -294T72 -281V381Q72 388 78 394T91 400H112Q123 400 128 387L135 368Q140 373 149 380T189 398T251 410Q332 410 386 348T440 199Q440 111 385 51T248 -10Q219 -10 192 -2T153 14L141 23ZM142 92Q184 57 239 57Q296 57 333 98T370 200T336 304T244 347Q215 347 190 335T153 310L142 298V92Z"/>
<glyph unicode="q" glyph-name="q" horiz-adv-x="482" d="M42 199Q42 286 96 348T231 410Q263 410 292 400T334 378L347 368L354 386Q359 400 373 400H391Q398 400 404 394T410 381V-281Q410 -288 404 -294T391 -300H360Q352 -300 347 -294T341 -281V25Q300 -10 234 -10Q152 -10 97 50T42 199ZM112 261T112 200T149 98T243 57Q267 57 291 65T328 82L340 90V298Q336 303 328 311T294 333T238 347Q180 347 146 304Z"/>
<glyph unicode="r" glyph-name="r" horiz-adv-x="334" d="M71 19V381Q71 388 76 394T90 400H109Q123 400 126 386L134 357Q136 359 138 362T152 375T176 392T210 404T254 410Q267 410 279 409T303 404T322 394T324 377L312 343Q306 327 288 334Q270 342 249 342Q215 342 188 328T150 300L140 286V19Q140 12 134 6T121 0H90Q82 0 77 6T71 19Z"/>
<glyph unicode="s" glyph-name="s" horiz-adv-x="356" d="M52 35Q42 43 47 56Q49 59 54 69T61 81Q70 95 88 84Q131 49 182 49Q212 49 229 62T247 97Q247 121 228 136T159 177Q126 193 105 207T64 247T45 306Q45 344 77 377T172 410Q238 410 283 379Q300 368 289 348L281 332Q270 313 252 323Q209 347 172 347Q142 347 129 335T115 307T127 278T150 259T189 239Q222 223 240 213T279 187T310 150T320 103Q320 58 281 24T182 -10Q110 -10 52 35Z"/>
<glyph unicode="t" glyph-name="t" horiz-adv-x="342" d="M97 100V340H46Q38 340 33 345T27 359V381Q27 400 46 400H97V511Q97 518 102 524T116 530L148 532Q155 532 160 527T166 513V400H282Q301 400 301 381V359Q301 351 296 346T282 340H166V106Q166 77 173 68T199 58Q231 58 272 80Q287 88 296 74L311 49Q320 34 304 24T254 2T189 -10Q134 -10 116 18T97 100Z"/>
<glyph unicode="u" glyph-name="u" horiz-adv-x="485" d="M66 171V381Q66 388 72 394T85 400H117Q124 400 130 394T136 381V170Q136 114 159 86T226 57Q260 57 289 71T332 100L345 114V381Q345 388 350 394T364 400H395Q402 400 408 394T414 381V19Q414 12 408 6T395 0H376Q363 0 358 17L351 43Q349 41 346 38T330 25T303 8T267 -4T221 -10Q66 -10 66 171Z"/>
<glyph unicode="v" glyph-name="v" horiz-adv-x="411" d="M185 0L16 377Q11 387 15 393T31 400H62Q74 400 80 389L204 103H205L337 389Q342 400 354 400H380Q391 400 395 394T395 377L224 0Q220 -10 207 -10H202Q189 -10 185 0Z"/>
<glyph unicode="w" glyph-name="w" horiz-adv-x="604" d="M144 0L33 377Q26 400 48 400H79Q93 400 97 389L170 125H171L284 400Q288 410 301 410H306Q319 410 323 400L435 124H436L508 389Q512 400 525 400H556Q578 400 571 377L462 0Q459 -10 445 -10H440Q427 -10 423 0L301 300L183 0Q179 -10 166 -10H161Q147 -10 144 0Z"/>
<glyph unicode="x" glyph-name="x" horiz-adv-x="417" d="M37 26L168 204L41 374Q33 384 37 392T54 400H96Q106 400 112 392L207 256H208L307 392Q313 400 323 400H365Q378 400 382 392T378 374L251 205L379 26Q386 16 382 8T366 0H329Q321 0 314 9L208 156H207L103 8Q97 0 87 0H50Q38 0 34 8T37 26Z"/>
<glyph unicode="y" glyph-name="y" horiz-adv-x="466" d="M200 1L14 378Q9 388 13 394T29 400H73Q84 400 90 389L238 83H239L379 389Q384 400 396 400H434Q445 400 449 394T449 377L142 -288Q136 -300 125 -300H88Q77 -300 72 -293T72 -275L200 1Z"/>
<glyph unicode="z" glyph-name="z" horiz-adv-x="365" d="M36 19V29L232 334V337H64Q57 337 52 342T46 356V381Q46 389 51 394T64 400H315Q326 400 332 392T332 373L141 66V63H295Q314 63 314 44V19Q314 11 309 6T295 0H55Q48 0 42 6T36 19Z"/>
<glyph unicode="{" glyph-name="braceleft" horiz-adv-x="399" d="M109 -71V90Q109 120 86 142T40 168Q25 170 25 185V216Q25 229 40 231Q62 235 85 257T109 309V470Q109 535 132 584T193 659T271 697T354 710Q374 710 374 693V674Q374 658 361 656Q284 645 231 596T178 470V337Q178 302 171 277T149 237T124 216T99 203V196Q114 190 124 184T148 163T170 123T178 62V-71Q178 -148 231 -196T361 -256Q374 -258 374 -273V-293Q374 -300 368 -305T354 -310Q312 -310 272 -298T194 -259T133 -185T109 -71Z"/>
<glyph unicode="|" glyph-name="bar" horiz-adv-x="198" d="M77 -282V741Q77 749 82 754T96 760H103Q111 760 116 755T121 741V-282Q121 -289 116 -294T102 -300H96Q88 -300 83 -295T77 -282Z"/>
<glyph unicode="}" glyph-name="braceright" horiz-adv-x="399" d="M221 62Q221 97 228 122T250 162T275 183T300 196V203Q285 209 275 215T251 236T229 276T221 337V470Q221 547 168 596T38 656Q25 658 25 674V693Q25 710 45 710Q87 710 127 698T205 659T266 584T290 470V309Q290 279 313 257T359 231Q374 229 374 216V185Q374 170 359 168Q337 164 314 142T290 90V-71Q290 -136 267 -184T206 -259T128 -297T45 -310Q37 -310 31 -305T25 -293V-273Q25 -258 38 -256Q115 -245 168 -197T221 -71V62Z"/>
<glyph unicode="~" glyph-name="asciitilde" horiz-adv-x="556" d="M79 228Q76 231 69 236T58 245Q45 256 56 269Q58 273 62 279T80 301T108 329T145 351T189 361Q234 361 297 316Q345 282 370 282Q379 282 388 284T405 292T418 301T431 314T440 326T449 339L455 348Q467 365 482 352L503 335Q516 324 505 311Q503 307 499 301T481 279T453 251T416 229T370 219Q328 219 266 262Q264 264 255 270T240 280T225 289T208 296T190 298T172 296T156 288T143 279T130 266T121 254T112 242T106 232Q94 215 79 228Z"/>
</font>
</defs>
</svg>
